<?xml version="1.0" encoding="UTF-8" standalone="no"?>
<!-- Created with Inkscape (http://www.inkscape.org/) -->
<svg
   xmlns:dc="http://purl.org/dc/elements/1.1/"
   xmlns:cc="http://creativecommons.org/ns#"
   xmlns:rdf="http://www.w3.org/1999/02/22-rdf-syntax-ns#"
   xmlns:svg="http://www.w3.org/2000/svg"
   xmlns="http://www.w3.org/2000/svg"
   xmlns:xlink="http://www.w3.org/1999/xlink"
   xmlns:sodipodi="http://sodipodi.sourceforge.net/DTD/sodipodi-0.dtd"
   xmlns:inkscape="http://www.inkscape.org/namespaces/inkscape"
   width="32"
   height="32"
   id="svg2"
   sodipodi:version="0.32"
   inkscape:version="0.46"
   version="1.0"
   sodipodi:docname="jaiku32.svg"
   inkscape:output_extension="org.inkscape.output.svg.inkscape"
   inkscape:export-filename="C:\Users\Cube\Documents\My Dropbox\Inkscape-Files\jaiku\jaiku32.png"
   inkscape:export-xdpi="90"
   inkscape:export-ydpi="90">
  <defs
     id="defs4">
    <linearGradient
       id="linearGradient6308">
      <stop
         id="stop6310"
         offset="0"
         style="stop-color:#82ad35;stop-opacity:1;" />
      <stop
         id="stop6312"
         offset="1"
         style="stop-color:#a6ce5e;stop-opacity:1;" />
    </linearGradient>
    <linearGradient
       inkscape:collect="always"
       id="linearGradient6290">
      <stop
         style="stop-color:#ffffff;stop-opacity:1;"
         offset="0"
         id="stop6292" />
      <stop
         style="stop-color:#ffffff;stop-opacity:0;"
         offset="1"
         id="stop6294" />
    </linearGradient>
    <inkscape:perspective
       sodipodi:type="inkscape:persp3d"
       inkscape:vp_x="0 : 526.18109 : 1"
       inkscape:vp_y="0 : 1000 : 0"
       inkscape:vp_z="744.09448 : 526.18109 : 1"
       inkscape:persp3d-origin="372.04724 : 350.78739 : 1"
       id="perspective10" />
    <inkscape:perspective
       id="perspective5482"
       inkscape:persp3d-origin="372.04724 : 350.78739 : 1"
       inkscape:vp_z="744.09448 : 526.18109 : 1"
       inkscape:vp_y="0 : 1000 : 0"
       inkscape:vp_x="0 : 526.18109 : 1"
       sodipodi:type="inkscape:persp3d" />
    <radialGradient
       inkscape:collect="always"
       xlink:href="#linearGradient6290"
       id="radialGradient6298"
       cx="23.500002"
       cy="22.500002"
       fx="23.500002"
       fy="22.500002"
       r="21.500002"
       gradientTransform="matrix(1.1870749,-2.0296022e-2,2.69997e-2,1.5065647,-4.5037515,-10.920749)"
       gradientUnits="userSpaceOnUse" />
    <linearGradient
       inkscape:collect="always"
       xlink:href="#linearGradient6308"
       id="linearGradient6306"
       x1="23.5"
       y1="39.33297"
       x2="23.5"
       y2="18.655552"
       gradientUnits="userSpaceOnUse"
       gradientTransform="matrix(1.0227273,0,0,1,-3.4090979e-2,0)" />
    <filter
       inkscape:collect="always"
       id="filter6326"
       x="-0.14125983"
       width="1.2825197"
       y="-0.7973333"
       height="2.5946665">
      <feGaussianBlur
         inkscape:collect="always"
         stdDeviation="1.8638961"
         id="feGaussianBlur6328" />
    </filter>
    <linearGradient
       inkscape:collect="always"
       xlink:href="#linearGradient6308"
       id="linearGradient5524"
       gradientUnits="userSpaceOnUse"
       gradientTransform="matrix(1.0227273,0,0,1,-3.4090979e-2,0)"
       x1="23.5"
       y1="39.33297"
       x2="23.5"
       y2="18.655552" />
    <radialGradient
       inkscape:collect="always"
       xlink:href="#linearGradient6290"
       id="radialGradient5526"
       gradientUnits="userSpaceOnUse"
       gradientTransform="matrix(1.1870749,-2.0296022e-2,2.69997e-2,1.5065647,-4.5037515,-10.920749)"
       cx="23.500002"
       cy="22.500002"
       fx="23.500002"
       fy="22.500002"
       r="21.500002" />
    <radialGradient
       inkscape:collect="always"
       xlink:href="#linearGradient6290"
       id="radialGradient5529"
       gradientUnits="userSpaceOnUse"
       gradientTransform="matrix(0.7453726,-1.2685012e-2,1.6953299e-2,0.9416028,-1.8977044,-5.3879667)"
       cx="23.500002"
       cy="22.500002"
       fx="23.500002"
       fy="22.500002"
       r="21.500002" />
    <linearGradient
       inkscape:collect="always"
       xlink:href="#linearGradient6308"
       id="linearGradient5537"
       gradientUnits="userSpaceOnUse"
       gradientTransform="matrix(0.659091,0,0,0.6471274,0.5113636,0.9384679)"
       x1="23.5"
       y1="39.33297"
       x2="23.5"
       y2="18.655552" />
  </defs>
  <sodipodi:namedview
     id="base"
     pagecolor="#ffffff"
     bordercolor="#666666"
     borderopacity="1.0"
     gridtolerance="10000"
     guidetolerance="10"
     objecttolerance="10"
     inkscape:pageopacity="0.0"
     inkscape:pageshadow="2"
     inkscape:zoom="1"
     inkscape:cx="9.0726185"
     inkscape:cy="15.127881"
     inkscape:document-units="px"
     inkscape:current-layer="layer1"
     showgrid="true"
     inkscape:window-width="1280"
     inkscape:window-height="974"
     inkscape:window-x="-8"
     inkscape:window-y="-8"
     inkscape:snap-nodes="false"
     inkscape:snap-bbox="true">
    <inkscape:grid
       type="xygrid"
       id="grid2383"
       visible="true"
       enabled="true" />
  </sodipodi:namedview>
  <metadata
     id="metadata7">
    <rdf:RDF>
      <cc:Work
         rdf:about="">
        <dc:format>image/svg+xml</dc:format>
        <dc:type
           rdf:resource="http://purl.org/dc/dcmitype/StillImage" />
        <dc:creator>
          <cc:Agent>
            <dc:title>Jakub Szypulka</dc:title>
          </cc:Agent>
        </dc:creator>
        <dc:publisher>
          <cc:Agent>
            <dc:title>Jakub Szypulka</dc:title>
          </cc:Agent>
        </dc:publisher>
        <dc:rights>
          <cc:Agent>
            <dc:title>Jakub Szypulka</dc:title>
          </cc:Agent>
        </dc:rights>
      </cc:Work>
    </rdf:RDF>
  </metadata>
  <g
     inkscape:label="Layer 1"
     inkscape:groupmode="layer"
     id="layer1">
    <path
       sodipodi:type="arc"
       style="opacity:0.3;fill:#000000;fill-opacity:1;fill-rule:evenodd;stroke:none;stroke-width:1px;stroke-linecap:butt;stroke-linejoin:miter;marker:none;marker-start:none;marker-mid:none;marker-end:none;stroke-miterlimit:4;stroke-dasharray:none;stroke-dashoffset:0;stroke-opacity:1;visibility:visible;display:inline;overflow:visible;filter:url(#filter6326);enable-background:accumulate"
       id="path6316"
       sodipodi:cx="23.937662"
       sodipodi:cy="41.205196"
       sodipodi:rx="15.833766"
       sodipodi:ry="2.8051949"
       d="M 39.771428,41.205196 A 15.833766,2.8051949 0 1 1 8.1038961,41.205196 A 15.833766,2.8051949 0 1 1 39.771428,41.205196 z"
       transform="matrix(0.8309114,0,0,0.6524003,-3.9606322,-0.4021319)" />
    <path
       style="fill:url(#linearGradient5537);fill-opacity:1;fill-rule:evenodd;stroke:#6f932a;stroke-width:1.00000024px;stroke-linecap:butt;stroke-linejoin:miter;marker:none;marker-start:none;marker-mid:none;marker-end:none;stroke-miterlimit:4;stroke-dashoffset:0;stroke-opacity:1;visibility:visible;display:inline;overflow:visible;enable-background:accumulate"
       d="M 30.500001,15.5 C 30.500001,22.987978 24.004002,26.500001 16.000001,26.500001 C 7.9960004,26.500001 1.5000001,22.908759 1.5000001,15.5 C 1.5000001,8.0509254 7.9960004,4.5000001 16.000001,4.5000001 C 24.004002,4.5000001 30.500001,8.013218 30.500001,15.5 z"
       id="path5488"
       sodipodi:nodetypes="cszsz" />
    <path
       style="font-size:14.65219212px;font-style:normal;font-variant:normal;font-weight:normal;font-stretch:normal;fill:#ffffff;fill-opacity:1;stroke:none;stroke-width:1px;stroke-linecap:butt;stroke-linejoin:miter;stroke-opacity:1;font-family:Bitstream Vera Sans;-inkscape-font-specification:Bitstream Vera Sans"
       d="M 6.0277245,12.009208 L 7,12.009208 L 7,17.09641 C 6.9999981,17.753857 6.8715666,18.230045 6.6147056,18.524976 C 6.3578414,18.819904 5.9441823,18.967368 5.3737268,18.96737 L 5.0427992,18.96737 L 5.0427992,18.248479 L 5.2744485,18.248479 C 5.6053757,18.248478 5.7283132,18.173978 5.8480781,18.024978 C 5.9678415,17.875976 6.0277236,17.566454 6.0277245,17.09641 L 6.0277245,12.009208 z M 6.0277245,10 L 7,10 L 7,10.990611 L 6.0277245,10.990611 L 6.0277245,10 z"
       id="text5491"
       sodipodi:nodetypes="cccsccccsccccccc" />
    <path
       style="font-size:14.45031452px;font-style:normal;font-variant:normal;font-weight:normal;font-stretch:normal;fill:#ffffff;fill-opacity:1;stroke:none;stroke-width:1px;stroke-linecap:butt;stroke-linejoin:miter;stroke-opacity:1;font-family:Bitstream Vera Sans;-inkscape-font-specification:Bitstream Vera Sans"
       d="M 17,13 L 18.001095,13 L 18.001095,17.134319 L 20.692152,15.044039 L 21.874245,15.044039 L 19.031773,17.318766 L 22,20 L 20.792756,20 L 18.001095,17.539203 L 18.001095,20 L 17,20 L 17,13 z"
       id="text5495"
       sodipodi:nodetypes="cccccccccccc" />
    <path
       style="font-size:14.56573677px;font-style:normal;font-variant:normal;font-weight:normal;font-stretch:normal;fill:#ffffff;fill-opacity:1;stroke:none;stroke-width:1px;stroke-linecap:butt;stroke-linejoin:miter;stroke-opacity:1;font-family:Bitstream Vera Sans;-inkscape-font-specification:Bitstream Vera Sans"
       d="M 11.060254,14.607668 C 10.274486,14.607671 9.7300897,14.67995 9.4270616,14.824505 C 9.1240291,14.969065 8.9725142,15.090988 8.9725156,15.439625 C 8.9725142,15.717405 9.0861507,15.937784 9.3134251,16.100766 C 9.5406953,16.263747 9.8498924,16.345238 10.241014,16.345238 C 10.780124,16.345238 11.212646,16.191469 11.538583,15.883929 C 11.864513,15.57639 12.02748,15.292194 12.027483,14.781988 L 12.027483,14.607668 L 11.060254,14.607668 z M 13,14.159864 L 13,17.001375 L 12.027483,17.001375 L 12.027483,16.153911 C 11.805492,16.443028 11.528889,16.656321 11.197675,16.793793 C 10.866451,16.931264 10.461238,17 9.9820292,17 C 9.3759671,17 8.8941141,16.863237 8.5364695,16.58971 C 8.178822,16.316186 7.9999993,15.94983 8,15.490647 C 7.9999993,14.954934 8.2228677,14.675698 8.6686046,14.403587 C 9.1143391,14.13148 9.7794192,13.995426 10.663848,13.995423 L 12.027483,13.995423 L 12.027483,13.918892 C 12.02748,13.558919 11.880369,13.155758 11.586153,12.958759 C 11.291928,12.761767 10.878785,12.66327 10.346723,12.663265 C 10.008454,12.66327 9.6789969,12.695866 9.3583508,12.761055 C 9.037701,12.826252 8.7293853,12.924041 8.4334035,13.054422 L 8.4334035,12.331633 C 8.7892868,12.221093 9.1346003,12.138186 9.4693448,12.082908 C 9.8040839,12.027641 10.130018,12.000005 10.447146,12 C 11.303379,12.000005 11.942912,12.178576 12.36575,12.535715 C 12.788578,12.892862 12.999994,13.434244 13,14.159864 L 13,14.159864 z"
       id="text6269"
       sodipodi:nodetypes="cssssscccccccssssscccsssccssscc" />
    <path
       style="font-size:12.69441319px;font-style:normal;font-variant:normal;font-weight:normal;font-stretch:normal;fill:#ffffff;fill-opacity:1;stroke:none;stroke-width:1px;stroke-linecap:butt;stroke-linejoin:miter;stroke-opacity:1;font-family:Bitstream Vera Sans;-inkscape-font-specification:Bitstream Vera Sans"
       d="M 14.035911,12.023777 L 15,12.023777 L 15,17 L 14.035911,17 L 14.035911,12.023777 z M 14.035911,10 L 15,10 L 15,10.985863 L 14.035911,10.985863 L 14.035911,10 z"
       id="text6273"
       sodipodi:nodetypes="cccccccccc" />
    <path
       style="font-size:14.7625885px;font-style:normal;font-variant:normal;font-weight:normal;font-stretch:normal;fill:#ffffff;fill-opacity:1;stroke:none;stroke-width:1px;stroke-linecap:butt;stroke-linejoin:miter;stroke-opacity:1;font-family:Bitstream Vera Sans;-inkscape-font-specification:Bitstream Vera Sans"
       d="M 22,17.950392 L 22,15 L 23.004094,15 L 23.004094,17.91993 C 23.004091,18.381202 23.114255,18.727156 23.334584,18.957789 C 23.832873,19.279623 24.574466,19.225374 25.524428,18.890339 C 25.831814,18.614738 25.985511,18.23905 25.985515,17.763272 L 25.985515,15 L 27,15 L 27,19.997776 L 26.001258,19.997776 L 26.001258,19.387047 C 25.501419,19.683828 24.899403,19.884968 24.094882,20 C 23.409024,19.999999 22.888413,19.825935 22.533049,19.477806 C 22.177682,19.129678 21.999999,18.620541 22,17.950392 L 22,17.950392 z"
       id="text6277"
       sodipodi:nodetypes="cccccccccccccscc" />
    <path
       sodipodi:nodetypes="cszsz"
       id="path6288"
       d="M 29.5,15.499998 C 29.5,22.307251 23.452001,25.499999 16,25.499999 C 8.5479997,25.499999 2.5000001,22.235234 2.5000001,15.499998 C 2.5000001,8.7281137 8.5479997,5.5 16,5.5 C 23.452001,5.5 29.5,8.6938343 29.5,15.499998 z"
       style="fill:none;fill-opacity:1;fill-rule:evenodd;stroke:url(#radialGradient5529);stroke-width:1.00000012px;stroke-linecap:butt;stroke-linejoin:miter;marker:none;marker-start:none;marker-mid:none;marker-end:none;stroke-miterlimit:4;stroke-dashoffset:0;stroke-opacity:1;visibility:visible;display:inline;overflow:visible;enable-background:accumulate" />
  </g>
</svg>
