<?xml version="1.0" encoding="UTF-8" standalone="no"?>
<!-- Created with Inkscape (http://www.inkscape.org/) -->
<svg
   xmlns:dc="http://purl.org/dc/elements/1.1/"
   xmlns:cc="http://creativecommons.org/ns#"
   xmlns:rdf="http://www.w3.org/1999/02/22-rdf-syntax-ns#"
   xmlns:svg="http://www.w3.org/2000/svg"
   xmlns="http://www.w3.org/2000/svg"
   xmlns:xlink="http://www.w3.org/1999/xlink"
   xmlns:sodipodi="http://sodipodi.sourceforge.net/DTD/sodipodi-0.dtd"
   xmlns:inkscape="http://www.inkscape.org/namespaces/inkscape"
   width="22"
   height="22"
   id="svg2"
   sodipodi:version="0.32"
   inkscape:version="0.46"
   version="1.0"
   sodipodi:docname="brightkite22.svg"
   inkscape:output_extension="org.inkscape.output.svg.inkscape"
   inkscape:export-filename="C:\Users\Cube\Documents\My Dropbox\Inkscape-Files\brightkite\brightkite22.png"
   inkscape:export-xdpi="90"
   inkscape:export-ydpi="90">
  <defs
     id="defs4">
    <linearGradient
       id="linearGradient6441">
      <stop
         id="stop6443"
         offset="0"
         style="stop-color:#ffffff;stop-opacity:1;" />
      <stop
         id="stop6445"
         offset="1"
         style="stop-color:#ffffff;stop-opacity:0;" />
    </linearGradient>
    <linearGradient
       id="linearGradient6391"
       inkscape:collect="always">
      <stop
         id="stop6393"
         offset="0"
         style="stop-color:#000000;stop-opacity:1;" />
      <stop
         id="stop6395"
         offset="1"
         style="stop-color:#000000;stop-opacity:0;" />
    </linearGradient>
    <linearGradient
       id="linearGradient6361">
      <stop
         id="stop6363"
         offset="0"
         style="stop-color:#87ab00;stop-opacity:1;" />
      <stop
         id="stop6365"
         offset="1"
         style="stop-color:#d2ff25;stop-opacity:1;" />
    </linearGradient>
    <linearGradient
       id="linearGradient6333">
      <stop
         style="stop-color:#000000;stop-opacity:1;"
         offset="0"
         id="stop6335" />
      <stop
         style="stop-color:#000000;stop-opacity:0;"
         offset="1"
         id="stop6337" />
    </linearGradient>
    <linearGradient
       inkscape:collect="always"
       id="linearGradient6297">
      <stop
         style="stop-color:#ffffff;stop-opacity:1;"
         offset="0"
         id="stop6299" />
      <stop
         style="stop-color:#ffffff;stop-opacity:0;"
         offset="1"
         id="stop6301" />
    </linearGradient>
    <linearGradient
       id="linearGradient6287">
      <stop
         id="stop6289"
         offset="0"
         style="stop-color:#39677e;stop-opacity:1;" />
      <stop
         id="stop6291"
         offset="1"
         style="stop-color:#15272f;stop-opacity:1;" />
    </linearGradient>
    <inkscape:perspective
       sodipodi:type="inkscape:persp3d"
       inkscape:vp_x="0 : 526.18109 : 1"
       inkscape:vp_y="0 : 1000 : 0"
       inkscape:vp_z="744.09448 : 526.18109 : 1"
       inkscape:persp3d-origin="372.04724 : 350.78739 : 1"
       id="perspective10" />
    <inkscape:perspective
       id="perspective5482"
       inkscape:persp3d-origin="372.04724 : 350.78739 : 1"
       inkscape:vp_z="744.09448 : 526.18109 : 1"
       inkscape:vp_y="0 : 1000 : 0"
       inkscape:vp_x="0 : 526.18109 : 1"
       sodipodi:type="inkscape:persp3d" />
    <linearGradient
       inkscape:collect="always"
       xlink:href="#linearGradient6287"
       id="linearGradient6285"
       x1="22.777817"
       y1="3.5169106"
       x2="22.753736"
       y2="42.999996"
       gradientUnits="userSpaceOnUse" />
    <radialGradient
       inkscape:collect="always"
       xlink:href="#linearGradient6297"
       id="radialGradient6315"
       cx="12.790137"
       cy="12.667428"
       fx="12.790137"
       fy="12.667428"
       r="19"
       gradientTransform="matrix(1.9477682,1.7933799,-1.347718,1.4637408,4.9500369,-28.811977)"
       gradientUnits="userSpaceOnUse" />
    <linearGradient
       inkscape:collect="always"
       xlink:href="#linearGradient6333"
       id="linearGradient6343"
       gradientUnits="userSpaceOnUse"
       x1="25.847952"
       y1="35.842083"
       x2="33.089836"
       y2="7.9636431" />
    <filter
       inkscape:collect="always"
       id="filter6349"
       x="-0.12660283"
       width="1.2532057"
       y="-0.11405175"
       height="1.2281035">
      <feGaussianBlur
         inkscape:collect="always"
         stdDeviation="1.5174836"
         id="feGaussianBlur6351" />
    </filter>
    <linearGradient
       inkscape:collect="always"
       xlink:href="#linearGradient6361"
       id="linearGradient6359"
       x1="30.97949"
       y1="32.138748"
       x2="19.449402"
       y2="10.258228"
       gradientUnits="userSpaceOnUse" />
    <linearGradient
       inkscape:collect="always"
       xlink:href="#linearGradient6287"
       id="linearGradient6373"
       x1="27.94981"
       y1="3.4569397"
       x2="27.887472"
       y2="42.262238"
       gradientUnits="userSpaceOnUse"
       gradientTransform="matrix(1.0258442,0,0,1.0065488,-0.8889459,-7.2035741e-2)" />
    <linearGradient
       inkscape:collect="always"
       xlink:href="#linearGradient6287"
       id="linearGradient6377"
       gradientUnits="userSpaceOnUse"
       gradientTransform="matrix(1.0258442,0,0,1.0065488,-0.8889459,-7.2035741e-2)"
       x1="27.94981"
       y1="3.4569397"
       x2="27.887472"
       y2="42.262238" />
    <linearGradient
       inkscape:collect="always"
       xlink:href="#linearGradient6391"
       id="linearGradient6389"
       x1="27"
       y1="11.636807"
       x2="24.543005"
       y2="21.875572"
       gradientUnits="userSpaceOnUse" />
    <filter
       inkscape:collect="always"
       id="filter6413"
       x="-0.12886956"
       width="1.2577391"
       y="-0.080543481"
       height="1.161087">
      <feGaussianBlur
         inkscape:collect="always"
         stdDeviation="0.53695652"
         id="feGaussianBlur6415" />
    </filter>
    <linearGradient
       inkscape:collect="always"
       xlink:href="#linearGradient6391"
       id="linearGradient6419"
       gradientUnits="userSpaceOnUse"
       x1="25.537844"
       y1="27.817999"
       x2="26.492546"
       y2="23.094036" />
    <linearGradient
       inkscape:collect="always"
       xlink:href="#linearGradient6391"
       id="linearGradient6423"
       gradientUnits="userSpaceOnUse"
       x1="25.537844"
       y1="27.817999"
       x2="26.492546"
       y2="23.094036" />
    <linearGradient
       inkscape:collect="always"
       xlink:href="#linearGradient6361"
       id="linearGradient6427"
       gradientUnits="userSpaceOnUse"
       x1="30.97949"
       y1="32.138748"
       x2="19.449402"
       y2="10.258228" />
    <linearGradient
       inkscape:collect="always"
       xlink:href="#linearGradient6441"
       id="linearGradient6439"
       x1="18.172077"
       y1="9.659091"
       x2="38.185665"
       y2="29.794155"
       gradientUnits="userSpaceOnUse" />
    <filter
       inkscape:collect="always"
       id="filter6449"
       x="-0.13080385"
       width="1.2616076"
       y="-1.4528571"
       height="3.9057143">
      <feGaussianBlur
         inkscape:collect="always"
         stdDeviation="2.11875"
         id="feGaussianBlur6451" />
    </filter>
    <linearGradient
       inkscape:collect="always"
       xlink:href="#linearGradient6287"
       id="linearGradient5532"
       gradientUnits="userSpaceOnUse"
       x1="22.777817"
       y1="3.5169106"
       x2="22.753736"
       y2="42.999996" />
    <linearGradient
       inkscape:collect="always"
       xlink:href="#linearGradient6361"
       id="linearGradient5534"
       gradientUnits="userSpaceOnUse"
       x1="30.97949"
       y1="32.138748"
       x2="19.449402"
       y2="10.258228" />
    <linearGradient
       inkscape:collect="always"
       xlink:href="#linearGradient6333"
       id="linearGradient5536"
       gradientUnits="userSpaceOnUse"
       x1="25.847952"
       y1="35.842083"
       x2="33.089836"
       y2="7.9636431" />
    <linearGradient
       inkscape:collect="always"
       xlink:href="#linearGradient6287"
       id="linearGradient5538"
       gradientUnits="userSpaceOnUse"
       gradientTransform="matrix(1.0258442,0,0,1.0065488,-0.8889459,-7.2035741e-2)"
       x1="27.94981"
       y1="3.4569397"
       x2="27.887472"
       y2="42.262238" />
    <radialGradient
       inkscape:collect="always"
       xlink:href="#linearGradient6297"
       id="radialGradient5540"
       gradientUnits="userSpaceOnUse"
       gradientTransform="matrix(1.9477682,1.7933799,-1.347718,1.4637408,4.9500369,-28.811977)"
       cx="12.790137"
       cy="12.667428"
       fx="12.790137"
       fy="12.667428"
       r="19" />
    <linearGradient
       inkscape:collect="always"
       xlink:href="#linearGradient6391"
       id="linearGradient5542"
       gradientUnits="userSpaceOnUse"
       x1="27"
       y1="11.636807"
       x2="24.543005"
       y2="21.875572" />
    <linearGradient
       inkscape:collect="always"
       xlink:href="#linearGradient6391"
       id="linearGradient5544"
       gradientUnits="userSpaceOnUse"
       x1="25.537844"
       y1="27.817999"
       x2="26.492546"
       y2="23.094036" />
    <linearGradient
       inkscape:collect="always"
       xlink:href="#linearGradient6441"
       id="linearGradient5546"
       gradientUnits="userSpaceOnUse"
       x1="18.172077"
       y1="9.659091"
       x2="38.185665"
       y2="29.794155" />
    <radialGradient
       inkscape:collect="always"
       xlink:href="#linearGradient6297"
       id="radialGradient5553"
       gradientUnits="userSpaceOnUse"
       gradientTransform="matrix(1.2634172,1.1632733,-0.8741955,0.9494534,3.1432674,-19.107764)"
       cx="12.790137"
       cy="12.667428"
       fx="12.790137"
       fy="12.667428"
       r="19" />
    <linearGradient
       inkscape:collect="always"
       xlink:href="#linearGradient6287"
       id="linearGradient5556"
       gradientUnits="userSpaceOnUse"
       gradientTransform="matrix(0.718091,0,0,0.6920023,-1.0222625,-0.6120246)"
       x1="27.94981"
       y1="3.4569397"
       x2="27.887472"
       y2="42.262238" />
    <linearGradient
       inkscape:collect="always"
       xlink:href="#linearGradient6361"
       id="linearGradient5560"
       gradientUnits="userSpaceOnUse"
       x1="30.97949"
       y1="32.138748"
       x2="19.449402"
       y2="10.258228"
       gradientTransform="matrix(0.6941164,0,0,0.6873564,-0.5041615,-1.2920902)" />
    <linearGradient
       inkscape:collect="always"
       xlink:href="#linearGradient6287"
       id="linearGradient5563"
       gradientUnits="userSpaceOnUse"
       x1="22.777817"
       y1="3.5169106"
       x2="22.753736"
       y2="42.999996"
       gradientTransform="matrix(0.6666667,0,0,0.6666667,-0.4999999,-0.8333335)" />
    <linearGradient
       inkscape:collect="always"
       xlink:href="#linearGradient6441"
       id="linearGradient5569"
       gradientUnits="userSpaceOnUse"
       x1="18.172077"
       y1="9.659091"
       x2="38.185665"
       y2="29.794155" />
    <linearGradient
       inkscape:collect="always"
       xlink:href="#linearGradient6333"
       id="linearGradient5571"
       gradientUnits="userSpaceOnUse"
       x1="25.847952"
       y1="35.842083"
       x2="33.089836"
       y2="7.9636431" />
    <linearGradient
       inkscape:collect="always"
       xlink:href="#linearGradient6391"
       id="linearGradient5574"
       gradientUnits="userSpaceOnUse"
       x1="27"
       y1="11.636807"
       x2="24.543005"
       y2="21.875572" />
    <linearGradient
       inkscape:collect="always"
       xlink:href="#linearGradient6391"
       id="linearGradient5576"
       gradientUnits="userSpaceOnUse"
       x1="25.537844"
       y1="27.817999"
       x2="26.492546"
       y2="23.094036" />
    <linearGradient
       inkscape:collect="always"
       xlink:href="#linearGradient6287"
       id="linearGradient5547"
       gradientUnits="userSpaceOnUse"
       gradientTransform="matrix(0.6666667,0,0,0.6666667,-0.4999999,-0.8333335)"
       x1="22.777817"
       y1="3.5169106"
       x2="22.753736"
       y2="42.999996" />
    <linearGradient
       inkscape:collect="always"
       xlink:href="#linearGradient6333"
       id="linearGradient5549"
       gradientUnits="userSpaceOnUse"
       x1="25.847952"
       y1="35.842083"
       x2="33.089836"
       y2="7.9636431" />
    <linearGradient
       inkscape:collect="always"
       xlink:href="#linearGradient6361"
       id="linearGradient5551"
       gradientUnits="userSpaceOnUse"
       gradientTransform="matrix(0.6941164,0,0,0.6873564,-0.5041615,-1.2920902)"
       x1="30.97949"
       y1="32.138748"
       x2="19.449402"
       y2="10.258228" />
    <linearGradient
       inkscape:collect="always"
       xlink:href="#linearGradient6287"
       id="linearGradient5553"
       gradientUnits="userSpaceOnUse"
       gradientTransform="matrix(0.718091,0,0,0.6920023,-1.0222625,-0.6120246)"
       x1="27.94981"
       y1="3.4569397"
       x2="27.887472"
       y2="42.262238" />
    <radialGradient
       inkscape:collect="always"
       xlink:href="#linearGradient6297"
       id="radialGradient5555"
       gradientUnits="userSpaceOnUse"
       gradientTransform="matrix(1.2634172,1.1632733,-0.8741955,0.9494534,3.1432674,-19.107764)"
       cx="12.790137"
       cy="12.667428"
       fx="12.790137"
       fy="12.667428"
       r="19" />
    <linearGradient
       inkscape:collect="always"
       xlink:href="#linearGradient6391"
       id="linearGradient5557"
       gradientUnits="userSpaceOnUse"
       x1="27"
       y1="11.636807"
       x2="24.543005"
       y2="21.875572" />
    <linearGradient
       inkscape:collect="always"
       xlink:href="#linearGradient6391"
       id="linearGradient5559"
       gradientUnits="userSpaceOnUse"
       x1="25.537844"
       y1="27.817999"
       x2="26.492546"
       y2="23.094036" />
    <linearGradient
       inkscape:collect="always"
       xlink:href="#linearGradient6441"
       id="linearGradient5561"
       gradientUnits="userSpaceOnUse"
       x1="18.172077"
       y1="9.659091"
       x2="38.185665"
       y2="29.794155" />
    <linearGradient
       inkscape:collect="always"
       xlink:href="#linearGradient6441"
       id="linearGradient5564"
       gradientUnits="userSpaceOnUse"
       x1="18.172077"
       y1="9.659091"
       x2="38.185665"
       y2="29.794155"
       gradientTransform="matrix(0.4219982,0,0,0.4399687,1.0965393,-0.6384559)" />
    <radialGradient
       inkscape:collect="always"
       xlink:href="#linearGradient6297"
       id="radialGradient5569"
       gradientUnits="userSpaceOnUse"
       gradientTransform="matrix(0.8949205,0.8239853,-0.6192218,0.6725296,2.2473147,-13.805501)"
       cx="12.790137"
       cy="12.667428"
       fx="12.790137"
       fy="12.667428"
       r="19" />
    <linearGradient
       inkscape:collect="always"
       xlink:href="#linearGradient6287"
       id="linearGradient5572"
       gradientUnits="userSpaceOnUse"
       gradientTransform="matrix(0.5129221,0,0,0.4942873,-1.4444729,-1.008589)"
       x1="27.94981"
       y1="3.4569397"
       x2="27.887472"
       y2="42.262238" />
    <linearGradient
       inkscape:collect="always"
       xlink:href="#linearGradient6361"
       id="linearGradient5575"
       gradientUnits="userSpaceOnUse"
       gradientTransform="matrix(0.5013062,0,0,0.5155173,-1.2807832,-1.844068)"
       x1="30.97949"
       y1="32.138748"
       x2="19.449402"
       y2="10.258228" />
    <linearGradient
       inkscape:collect="always"
       xlink:href="#linearGradient6287"
       id="linearGradient5579"
       gradientUnits="userSpaceOnUse"
       gradientTransform="matrix(0.4871795,0,0,0.4871795,-0.6923078,-1.2051285)"
       x1="22.777817"
       y1="3.5169106"
       x2="22.753736"
       y2="42.999996" />
    <linearGradient
       inkscape:collect="always"
       xlink:href="#linearGradient6391"
       id="linearGradient5582"
       gradientUnits="userSpaceOnUse"
       x1="25.537844"
       y1="27.817999"
       x2="26.492546"
       y2="23.094036" />
    <linearGradient
       inkscape:collect="always"
       xlink:href="#linearGradient6391"
       id="linearGradient5584"
       gradientUnits="userSpaceOnUse"
       x1="27"
       y1="11.636807"
       x2="24.543005"
       y2="21.875572" />
  </defs>
  <sodipodi:namedview
     id="base"
     pagecolor="#ffffff"
     bordercolor="#666666"
     borderopacity="1.0"
     gridtolerance="10000"
     guidetolerance="10"
     objecttolerance="10"
     inkscape:pageopacity="0.0"
     inkscape:pageshadow="2"
     inkscape:zoom="1"
     inkscape:cx="11"
     inkscape:cy="11.928571"
     inkscape:document-units="px"
     inkscape:current-layer="layer1"
     showgrid="false"
     inkscape:window-width="1280"
     inkscape:window-height="974"
     inkscape:window-x="-8"
     inkscape:window-y="-8"
     inkscape:snap-nodes="false"
     inkscape:snap-bbox="true">
    <inkscape:grid
       type="xygrid"
       id="grid2383"
       visible="true"
       enabled="true" />
  </sodipodi:namedview>
  <metadata
     id="metadata7">
    <rdf:RDF>
      <cc:Work
         rdf:about="">
        <dc:format>image/svg+xml</dc:format>
        <dc:type
           rdf:resource="http://purl.org/dc/dcmitype/StillImage" />
        <dc:creator>
          <cc:Agent>
            <dc:title>Jakub Szypulka</dc:title>
          </cc:Agent>
        </dc:creator>
        <dc:publisher>
          <cc:Agent>
            <dc:title>Jakub Szypulka</dc:title>
          </cc:Agent>
        </dc:publisher>
        <dc:rights>
          <cc:Agent>
            <dc:title>Jakub Szypulka</dc:title>
          </cc:Agent>
        </dc:rights>
      </cc:Work>
    </rdf:RDF>
  </metadata>
  <g
     inkscape:label="Layer 1"
     inkscape:groupmode="layer"
     id="layer1">
    <path
       sodipodi:type="arc"
       style="fill:#000000;fill-opacity:1;fill-rule:evenodd;stroke:none;stroke-width:1px;stroke-linecap:butt;stroke-linejoin:miter;marker:none;marker-start:none;marker-mid:none;marker-end:none;stroke-miterlimit:4;stroke-dasharray:none;stroke-dashoffset:0;stroke-opacity:1;visibility:visible;display:inline;overflow:visible;filter:url(#filter6449);enable-background:accumulate"
       id="path6447"
       sodipodi:cx="23.4375"
       sodipodi:cy="42.625"
       sodipodi:rx="19.4375"
       sodipodi:ry="1.75"
       d="M 42.875,42.625 A 19.4375,1.75 0 1 1 4,42.625 A 19.4375,1.75 0 1 1 42.875,42.625 z"
       transform="matrix(0.4960956,0,0,0.6122446,-0.8415272,-7.0254953)" />
    <rect
       style="fill:url(#linearGradient5579);fill-opacity:1;fill-rule:evenodd;stroke:#041219;stroke-width:1.00000012px;stroke-linecap:butt;stroke-linejoin:miter;marker:none;marker-start:none;marker-mid:none;marker-end:none;stroke-miterlimit:4;stroke-dasharray:none;stroke-dashoffset:0;stroke-opacity:1;visibility:visible;display:inline;overflow:visible;enable-background:accumulate"
       id="rect5488"
       width="19"
       height="19"
       x="1.5"
       y="0.50000006"
       ry="2.8003736" />
    <path
       sodipodi:type="inkscape:offset"
       inkscape:radius="0.91571391"
       inkscape:original="M 37.46875 8.4375 L 18.53125 8.46875 C 15.264301 9.8589236 15.587918 16.272259 11.53125 37.53125 C 34.964319 29.016864 37.505769 29.905755 37.46875 26.5 L 37.46875 8.4375 z "
       style="fill:none;fill-opacity:1;fill-rule:evenodd;stroke:url(#linearGradient5549);stroke-width:2.12468719px;stroke-linecap:butt;stroke-linejoin:miter;marker:none;marker-start:none;marker-mid:none;marker-end:none;stroke-miterlimit:4;stroke-dasharray:none;stroke-dashoffset:0;stroke-opacity:1;visibility:visible;display:inline;overflow:visible;filter:url(#filter6349);enable-background:accumulate"
       id="path6341"
       d="M 37.46875,7.53125 L 18.53125,7.5625 C 18.413718,7.5610806 18.297011,7.5823 18.1875,7.625 C 17.132332,8.0740019 16.328891,8.9945913 15.78125,10.25 C 15.233609,11.505409 14.859307,13.133673 14.4375,15.375 C 13.593886,19.857653 12.649316,26.766562 10.625,37.375 C 10.562507,37.699944 10.680164,38.033328 10.932768,38.24707 C 11.185371,38.460812 11.533631,38.521665 11.84375,38.40625 C 23.540684,34.156179 29.975641,32.257286 33.59375,30.96875 C 35.402805,30.324482 36.551655,29.855071 37.34375,29.15625 C 38.135845,28.457429 38.385488,27.464873 38.375,26.5 L 38.375,8.4375 C 38.369827,7.9391505 37.9671,7.5364232 37.46875,7.53125 L 37.46875,7.53125 z"
       transform="matrix(0.4651889,0,0,0.4761905,0.1364732,-0.9880963)" />
    <path
       style="fill:url(#linearGradient5575);fill-opacity:1;fill-rule:evenodd;stroke:#5d7800;stroke-width:0.99999994px;stroke-linecap:butt;stroke-linejoin:miter;marker:none;marker-start:none;marker-mid:none;marker-end:none;stroke-miterlimit:4;stroke-dasharray:none;stroke-dashoffset:0;stroke-opacity:1;visibility:visible;display:inline;overflow:visible;enable-background:accumulate"
       d="M 17.499803,2.5000001 L 17.499803,11.812977 C 17.51836,13.568703 16.247145,13.110688 4.4999998,17.500001 C 6.5336328,6.5406231 6.3789783,3.2357427 8.0167204,2.519084 L 17.499803,2.5000001 z"
       id="path5490"
       sodipodi:nodetypes="ccccc" />
    <path
       style="font-size:22.7496891px;font-style:normal;font-variant:normal;font-weight:normal;font-stretch:normal;fill:url(#linearGradient5572);fill-opacity:1;stroke:none;stroke-width:1px;stroke-linecap:butt;stroke-linejoin:miter;stroke-opacity:1;font-family:Bitstream Vera Serif;-inkscape-font-specification:Bitstream Vera Serif"
       d="M 15,9.2987919 C 14.999995,9.8112562 14.924975,10.25417 14.774941,10.627533 C 14.624898,11.0009 14.415983,11.311122 14.148199,11.5582 C 13.880404,11.805281 13.564184,11.988304 13.199537,12.107268 C 12.834883,12.226232 12.645611,12.285714 12.216391,12.285714 C 11.794762,12.285714 11.402573,12.255515 11.039823,12.195118 C 10.677072,12.13472 10.330465,12.053275 10,11.950783 L 10,4.4285713 L 11.39023,4.4285713 L 11.39023,6.2514725 L 11.333254,7.3496055 C 11.542164,7.0897198 11.786214,6.8810741 12.065404,6.7236698 C 12.344586,6.5662764 12.472131,6.4875768 12.863375,6.4875709 C 13.205231,6.4875768 13.509106,6.5534648 13.775002,6.6852348 C 14.040889,6.8170163 14.264046,7.0046141 14.444477,7.2480291 C 14.624898,7.491452 14.762591,7.7861184 14.857559,8.1320248 C 14.952513,8.4779405 14.999995,8.8668619 15,9.2987919 L 15,9.2987919 z M 13.541398,9.3536976 C 13.541394,9.0462241 13.518602,8.7845026 13.473026,8.5685326 C 13.42744,8.3525705 13.361916,8.1750398 13.276456,8.0359398 C 13.190986,7.8968462 13.086529,7.7952684 12.963086,7.7312069 C 12.839631,7.6671534 12.698139,7.6351248 12.538609,7.6351198 C 12.303102,7.6351248 12.285711,7.7266355 12.071101,7.9096534 C 11.856486,8.0926798 11.629529,8.3415891 11.39023,8.6563834 L 11.39023,11.09424 C 11.500383,11.134506 11.636175,11.167449 11.797614,11.193071 C 11.959044,11.218695 12.123327,11.231507 12.290461,11.231506 C 12.510769,11.231507 12.503469,11.187583 12.683899,11.09973 C 12.864321,11.011881 13.018158,10.887425 13.14541,10.726365 C 13.272653,10.565307 13.370462,10.368558 13.438839,10.136119 C 13.507207,9.9036819 13.541394,9.6428762 13.541398,9.3536976 L 13.541398,9.3536976 z"
       id="text5496"
       sodipodi:nodetypes="cssssscccccssssscccsssssccssssscc" />
    <rect
       ry="2.1137133"
       y="1.5"
       x="2.5"
       height="17.000002"
       width="17"
       id="rect6293"
       style="opacity:0.6;fill:none;fill-opacity:1;fill-rule:evenodd;stroke:url(#radialGradient5569);stroke-width:0.99999982px;stroke-linecap:butt;stroke-linejoin:miter;marker:none;marker-start:none;marker-mid:none;marker-end:none;stroke-miterlimit:4;stroke-dasharray:none;stroke-dashoffset:0;stroke-opacity:1;visibility:visible;display:inline;overflow:visible;enable-background:accumulate" />
    <path
       sodipodi:type="inkscape:offset"
       inkscape:radius="-0.48738533"
       inkscape:original="M 22 11 L 22 26.3125 C 22.660928 26.521212 23.368246 26.689508 24.09375 26.8125 C 24.819249 26.93549 25.594242 27 26.4375 27 C 27.295942 27 27.676941 26.867254 28.40625 26.625 C 29.135542 26.382746 29.74566 26.034396 30.28125 25.53125 C 30.81682 25.028108 31.262413 24.385309 31.5625 23.625 C 31.862567 22.864697 31.999988 21.949814 32 20.90625 C 31.999988 20.026685 31.90866 19.23566 31.71875 18.53125 C 31.528816 17.826857 31.235842 17.2457 30.875 16.75 C 30.514137 16.25432 30.094273 15.862105 29.5625 15.59375 C 29.030709 15.325418 28.402462 15.187512 27.71875 15.1875 C 26.936263 15.187512 26.683365 15.36699 26.125 15.6875 C 25.566623 16.008032 25.074073 16.408277 24.65625 16.9375 L 24.78125 14.71875 L 24.78125 11 L 22 11 z M 27.0625 17.53125 C 27.381562 17.531259 27.690594 17.588314 27.9375 17.71875 C 28.184389 17.849204 28.391562 18.060506 28.5625 18.34375 C 28.733421 18.62701 28.846327 18.997722 28.9375 19.4375 C 29.028653 19.877292 29.093741 20.405123 29.09375 21.03125 C 29.093741 21.620122 29.011736 22.151676 28.875 22.625 C 28.738249 23.098332 28.535735 23.484527 28.28125 23.8125 C 28.026746 24.140478 27.735843 24.414856 27.375 24.59375 C 27.01414 24.772648 27.034363 24.84375 26.59375 24.84375 C 26.259482 24.843751 25.916614 24.83343 25.59375 24.78125 C 25.270877 24.729074 25.001557 24.644496 24.78125 24.5625 L 24.78125 19.59375 C 25.259849 18.952715 25.727021 18.466459 26.15625 18.09375 C 26.585469 17.721059 26.591486 17.53126 27.0625 17.53125 z "
       style="font-size:22.7496891px;font-style:normal;font-variant:normal;font-weight:normal;font-stretch:normal;fill:none;fill-opacity:1;stroke:url(#linearGradient5584);stroke-width:2.29128695px;stroke-linecap:butt;stroke-linejoin:miter;stroke-opacity:1;filter:url(#filter6413);font-family:Bitstream Vera Serif;-inkscape-font-specification:Bitstream Vera Serif"
       id="path6379"
       d="M 22.5,11.5 L 22.5,25.9375 C 23.041972,26.093684 23.602763,26.244622 24.1875,26.34375 C 24.884296,26.461874 25.619099,26.5 26.4375,26.5 C 27.245697,26.5 27.518334,26.399287 28.25,26.15625 C 28.923816,25.932424 29.454713,25.641042 29.9375,25.1875 C 30.420414,24.733826 30.819711,24.131812 31.09375,23.4375 C 31.363457,22.754122 31.499988,21.90703 31.5,20.90625 C 31.499988,20.060419 31.426261,19.310034 31.25,18.65625 C 31.075322,18.008434 30.796793,17.481893 30.46875,17.03125 C 30.141759,16.582096 29.797118,16.260039 29.34375,16.03125 C 28.889828,15.802209 28.33693,15.687511 27.71875,15.6875 C 27.010789,15.687511 26.94639,15.797014 26.375,16.125 C 25.861224,16.419929 25.407695,16.773188 25.03125,17.25 C 24.899768,17.425783 24.667007,17.491991 24.462693,17.411725 C 24.258379,17.331458 24.132924,17.124523 24.15625,16.90625 L 24.28125,14.71875 L 24.28125,14.6875 L 24.28125,11.5 L 22.5,11.5 z M 27.0625,17.03125 C 27.439656,17.031261 27.812732,17.099776 28.15625,17.28125 C 28.495772,17.46065 28.763204,17.753161 28.96875,18.09375 C 29.187801,18.456774 29.309893,18.878965 29.40625,19.34375 C 29.503774,19.814279 29.593741,20.37135 29.59375,21.03125 C 29.59374,21.665366 29.493068,22.233121 29.34375,22.75 C 29.191007,23.278684 28.947563,23.749564 28.65625,24.125 C 28.372181,24.491079 28.038882,24.810568 27.59375,25.03125 C 27.439588,25.107677 27.384853,25.179916 27.21875,25.25 C 27.052647,25.320084 26.840273,25.34375 26.59375,25.34375 C 26.249449,25.343751 25.897772,25.309236 25.53125,25.25 C 25.168627,25.1914 24.864319,25.120322 24.625,25.03125 C 24.419592,24.96789 24.27994,24.777454 24.28125,24.5625 L 24.28125,19.59375 C 24.291449,19.48896 24.335302,19.39029 24.40625,19.3125 C 24.905124,18.644308 25.388255,18.114266 25.84375,17.71875 C 26.028284,17.558519 26.100623,17.430203 26.28125,17.28125 C 26.461877,17.132297 26.761528,17.031256 27.0625,17.03125 z"
       transform="matrix(0.4444446,0,0,0.4285715,0.4999955,-0.1428589)" />
    <path
       d="M 22.5,11.5 L 22.5,25.9375 C 23.041972,26.093684 23.602763,26.244622 24.1875,26.34375 C 24.884296,26.461874 25.619099,26.5 26.4375,26.5 C 27.245697,26.5 27.518334,26.399287 28.25,26.15625 C 28.923816,25.932424 29.454713,25.641042 29.9375,25.1875 C 30.420414,24.733826 30.819711,24.131812 31.09375,23.4375 C 31.363457,22.754122 31.499988,21.90703 31.5,20.90625 C 31.499988,20.060419 31.426261,19.310034 31.25,18.65625 C 31.075322,18.008434 30.796793,17.481893 30.46875,17.03125 C 30.141759,16.582096 29.797118,16.260039 29.34375,16.03125 C 28.889828,15.802209 28.33693,15.687511 27.71875,15.6875 C 27.010789,15.687511 26.94639,15.797014 26.375,16.125 C 25.861224,16.419929 25.407695,16.773188 25.03125,17.25 C 24.899768,17.425783 24.667007,17.491991 24.462693,17.411725 C 24.258379,17.331458 24.132924,17.124523 24.15625,16.90625 L 24.28125,14.71875 L 24.28125,14.6875 L 24.28125,11.5 L 22.5,11.5 z M 27.0625,17.03125 C 27.439656,17.031261 27.812732,17.099776 28.15625,17.28125 C 28.495772,17.46065 28.763204,17.753161 28.96875,18.09375 C 29.187801,18.456774 29.309893,18.878965 29.40625,19.34375 C 29.503774,19.814279 29.593741,20.37135 29.59375,21.03125 C 29.59374,21.665366 29.493068,22.233121 29.34375,22.75 C 29.191007,23.278684 28.947563,23.749564 28.65625,24.125 C 28.372181,24.491079 28.038882,24.810568 27.59375,25.03125 C 27.439588,25.107677 27.384853,25.179916 27.21875,25.25 C 27.052647,25.320084 26.840273,25.34375 26.59375,25.34375 C 26.249449,25.343751 25.897772,25.309236 25.53125,25.25 C 25.168627,25.1914 24.864319,25.120322 24.625,25.03125 C 24.419592,24.96789 24.27994,24.777454 24.28125,24.5625 L 24.28125,19.59375 C 24.291449,19.48896 24.335302,19.39029 24.40625,19.3125 C 24.905124,18.644308 25.388255,18.114266 25.84375,17.71875 C 26.028284,17.558519 26.100623,17.430203 26.28125,17.28125 C 26.461877,17.132297 26.761528,17.031256 27.0625,17.03125 z"
       id="path6417"
       style="font-size:22.7496891px;font-style:normal;font-variant:normal;font-weight:normal;font-stretch:normal;fill:none;fill-opacity:1;stroke:url(#linearGradient5582);stroke-width:2.49958682px;stroke-linecap:butt;stroke-linejoin:miter;stroke-opacity:1;filter:url(#filter6413);font-family:Bitstream Vera Serif;-inkscape-font-specification:Bitstream Vera Serif"
       inkscape:original="M 22 11 L 22 26.3125 C 22.660928 26.521212 23.368246 26.689508 24.09375 26.8125 C 24.819249 26.93549 25.594242 27 26.4375 27 C 27.295942 27 27.676941 26.867254 28.40625 26.625 C 29.135542 26.382746 29.74566 26.034396 30.28125 25.53125 C 30.81682 25.028108 31.262413 24.385309 31.5625 23.625 C 31.862567 22.864697 31.999988 21.949814 32 20.90625 C 31.999988 20.026685 31.90866 19.23566 31.71875 18.53125 C 31.528816 17.826857 31.235842 17.2457 30.875 16.75 C 30.514137 16.25432 30.094273 15.862105 29.5625 15.59375 C 29.030709 15.325418 28.402462 15.187512 27.71875 15.1875 C 26.936263 15.187512 26.683365 15.36699 26.125 15.6875 C 25.566623 16.008032 25.074073 16.408277 24.65625 16.9375 L 24.78125 14.71875 L 24.78125 11 L 22 11 z M 27.0625 17.53125 C 27.381562 17.531259 27.690594 17.588314 27.9375 17.71875 C 28.184389 17.849204 28.391562 18.060506 28.5625 18.34375 C 28.733421 18.62701 28.846327 18.997722 28.9375 19.4375 C 29.028653 19.877292 29.093741 20.405123 29.09375 21.03125 C 29.093741 21.620122 29.011736 22.151676 28.875 22.625 C 28.738249 23.098332 28.535735 23.484527 28.28125 23.8125 C 28.026746 24.140478 27.735843 24.414856 27.375 24.59375 C 27.01414 24.772648 27.034363 24.84375 26.59375 24.84375 C 26.259482 24.843751 25.916614 24.83343 25.59375 24.78125 C 25.270877 24.729074 25.001557 24.644496 24.78125 24.5625 L 24.78125 19.59375 C 25.259849 18.952715 25.727021 18.466459 26.15625 18.09375 C 26.585469 17.721059 26.591486 17.53126 27.0625 17.53125 z "
       inkscape:radius="-0.48738533"
       sodipodi:type="inkscape:offset"
       transform="matrix(0.3333333,0,0,0.4801588,4.0000005,-1.5099228)" />
    <path
       style="opacity:0.67000002;fill:none;fill-opacity:1;fill-rule:evenodd;stroke:url(#linearGradient5564);stroke-width:0.99999976px;stroke-linecap:butt;stroke-linejoin:miter;marker:none;marker-start:none;marker-mid:none;marker-end:none;stroke-miterlimit:4;stroke-dashoffset:0;stroke-opacity:1;visibility:visible;display:inline;overflow:visible;enable-background:accumulate"
       d="M 16.499473,3.4999998 L 8.7021484,3.5137488 C 8.4860638,3.6217699 8.3203781,3.7898727 8.1482758,4.2011999 C 7.9650286,4.6391637 7.808036,5.3129684 7.6339656,6.2773023 C 7.3115387,8.0635172 6.8771278,11.380064 6.1437844,15.5 C 10.454094,13.891872 13.638826,12.970322 15.009292,12.461466 C 15.747454,12.187385 16.16107,11.982589 16.328036,11.82901 C 16.495002,11.675432 16.50283,11.600995 16.499473,11.279049 L 16.499473,3.4999998 z"
       id="path6429"
       sodipodi:nodetypes="ccsscsscc" />
  </g>
</svg>
