<?xml version="1.0" encoding="UTF-8" standalone="no"?>
<!-- Created with Inkscape (http://www.inkscape.org/) -->
<svg
   xmlns:dc="http://purl.org/dc/elements/1.1/"
   xmlns:cc="http://creativecommons.org/ns#"
   xmlns:rdf="http://www.w3.org/1999/02/22-rdf-syntax-ns#"
   xmlns:svg="http://www.w3.org/2000/svg"
   xmlns="http://www.w3.org/2000/svg"
   xmlns:xlink="http://www.w3.org/1999/xlink"
   xmlns:sodipodi="http://sodipodi.sourceforge.net/DTD/sodipodi-0.dtd"
   xmlns:inkscape="http://www.inkscape.org/namespaces/inkscape"
   width="22"
   height="22"
   id="svg2"
   sodipodi:version="0.32"
   inkscape:version="0.46"
   version="1.0"
   sodipodi:docname="identica22.svg"
   inkscape:output_extension="org.inkscape.output.svg.inkscape"
   inkscape:export-filename="C:\Users\Cube\Documents\My Dropbox\Inkscape-Files\laconica\laconica22.png"
   inkscape:export-xdpi="90"
   inkscape:export-ydpi="90">
  <defs
     id="defs4">
    <linearGradient
       id="linearGradient6323">
      <stop
         id="stop6325"
         offset="0"
         style="stop-color:#f24d4d;stop-opacity:1;" />
      <stop
         id="stop6327"
         offset="1"
         style="stop-color:#d71010;stop-opacity:1;" />
    </linearGradient>
    <linearGradient
       inkscape:collect="always"
       id="linearGradient6301">
      <stop
         style="stop-color:#ffffff;stop-opacity:1;"
         offset="0"
         id="stop6303" />
      <stop
         style="stop-color:#ffffff;stop-opacity:0;"
         offset="1"
         id="stop6305" />
    </linearGradient>
    <linearGradient
       inkscape:collect="always"
       id="linearGradient6293">
      <stop
         style="stop-color:#ffffff;stop-opacity:1;"
         offset="0"
         id="stop6295" />
      <stop
         style="stop-color:#ffffff;stop-opacity:0;"
         offset="1"
         id="stop6297" />
    </linearGradient>
    <inkscape:perspective
       sodipodi:type="inkscape:persp3d"
       inkscape:vp_x="0 : 526.18109 : 1"
       inkscape:vp_y="0 : 1000 : 0"
       inkscape:vp_z="744.09448 : 526.18109 : 1"
       inkscape:persp3d-origin="372.04724 : 350.78739 : 1"
       id="perspective10" />
    <inkscape:perspective
       id="perspective5482"
       inkscape:persp3d-origin="372.04724 : 350.78739 : 1"
       inkscape:vp_z="744.09448 : 526.18109 : 1"
       inkscape:vp_y="0 : 1000 : 0"
       inkscape:vp_x="0 : 526.18109 : 1"
       sodipodi:type="inkscape:persp3d" />
    <linearGradient
       inkscape:collect="always"
       xlink:href="#linearGradient6293"
       id="linearGradient6299"
       x1="7.71875"
       y1="9.15625"
       x2="39.625"
       y2="39.28125"
       gradientUnits="userSpaceOnUse" />
    <linearGradient
       inkscape:collect="always"
       xlink:href="#linearGradient6301"
       id="linearGradient6307"
       x1="32.375"
       y1="32.64571"
       x2="13.352409"
       y2="13.270708"
       gradientUnits="userSpaceOnUse" />
    <filter
       inkscape:collect="always"
       id="filter6311"
       x="-0.14511067"
       width="1.2902213"
       y="-0.69346154"
       height="2.3869231">
      <feGaussianBlur
         inkscape:collect="always"
         stdDeviation="1.878125"
         id="feGaussianBlur6313" />
    </filter>
    <linearGradient
       inkscape:collect="always"
       xlink:href="#linearGradient6323"
       id="linearGradient6321"
       x1="6.5355339"
       y1="10.315667"
       x2="32.985111"
       y2="33.208248"
       gradientUnits="userSpaceOnUse" />
    <linearGradient
       inkscape:collect="always"
       xlink:href="#linearGradient6323"
       id="linearGradient5521"
       gradientUnits="userSpaceOnUse"
       x1="6.5355339"
       y1="10.315667"
       x2="32.985111"
       y2="33.208248"
       gradientTransform="matrix(1.0071373,0,0,1.0088675,-2.4980722e-2,-3.1036186e-2)" />
    <linearGradient
       inkscape:collect="always"
       xlink:href="#linearGradient6301"
       id="linearGradient5523"
       gradientUnits="userSpaceOnUse"
       x1="32.375"
       y1="32.64571"
       x2="13.352409"
       y2="13.270708" />
    <linearGradient
       inkscape:collect="always"
       xlink:href="#linearGradient6293"
       id="linearGradient5525"
       gradientUnits="userSpaceOnUse"
       x1="7.71875"
       y1="9.15625"
       x2="39.625"
       y2="39.28125" />
    <linearGradient
       inkscape:collect="always"
       xlink:href="#linearGradient6293"
       id="linearGradient5529"
       gradientUnits="userSpaceOnUse"
       x1="7.71875"
       y1="9.15625"
       x2="39.625"
       y2="39.28125" />
    <linearGradient
       inkscape:collect="always"
       xlink:href="#linearGradient6301"
       id="linearGradient5533"
       gradientUnits="userSpaceOnUse"
       x1="32.375"
       y1="32.64571"
       x2="13.352409"
       y2="13.270708" />
    <linearGradient
       inkscape:collect="always"
       xlink:href="#linearGradient6323"
       id="linearGradient5506"
       gradientUnits="userSpaceOnUse"
       gradientTransform="matrix(1.0071373,0,0,1.0088675,-2.4980722e-2,-3.1036186e-2)"
       x1="6.5355339"
       y1="10.315667"
       x2="32.985111"
       y2="33.208248" />
    <linearGradient
       inkscape:collect="always"
       xlink:href="#linearGradient6301"
       id="linearGradient5508"
       gradientUnits="userSpaceOnUse"
       x1="32.375"
       y1="32.64571"
       x2="13.352409"
       y2="13.270708" />
    <linearGradient
       inkscape:collect="always"
       xlink:href="#linearGradient6293"
       id="linearGradient5510"
       gradientUnits="userSpaceOnUse"
       x1="7.71875"
       y1="9.15625"
       x2="39.625"
       y2="39.28125" />
    <linearGradient
       inkscape:collect="always"
       xlink:href="#linearGradient6301"
       id="linearGradient5514"
       gradientUnits="userSpaceOnUse"
       x1="32.375"
       y1="32.64571"
       x2="13.352409"
       y2="13.270708"
       gradientTransform="matrix(0.7416819,0,0,0.7416819,-1.9234726,-1.8663093)" />
    <linearGradient
       inkscape:collect="always"
       xlink:href="#linearGradient6293"
       id="linearGradient5520"
       gradientUnits="userSpaceOnUse"
       x1="7.71875"
       y1="9.15625"
       x2="39.625"
       y2="39.28125" />
    <linearGradient
       inkscape:collect="always"
       xlink:href="#linearGradient6301"
       id="linearGradient5522"
       gradientUnits="userSpaceOnUse"
       gradientTransform="matrix(0.6957303,0,0,0.7416819,-0.2419076,-1.8663093)"
       x1="40.082878"
       y1="40.604874"
       x2="13.352409"
       y2="13.270708" />
    <linearGradient
       inkscape:collect="always"
       xlink:href="#linearGradient6293"
       id="linearGradient5526"
       gradientUnits="userSpaceOnUse"
       x1="7.71875"
       y1="9.15625"
       x2="39.625"
       y2="39.28125" />
    <linearGradient
       inkscape:collect="always"
       xlink:href="#linearGradient6293"
       id="linearGradient5530"
       gradientUnits="userSpaceOnUse"
       x1="7.71875"
       y1="9.15625"
       x2="39.625"
       y2="39.28125" />
  </defs>
  <sodipodi:namedview
     id="base"
     pagecolor="#ffffff"
     bordercolor="#666666"
     borderopacity="1.0"
     gridtolerance="10000"
     guidetolerance="10"
     objecttolerance="10"
     inkscape:pageopacity="0.0"
     inkscape:pageshadow="2"
     inkscape:zoom="22.627417"
     inkscape:cx="11.180227"
     inkscape:cy="20.507549"
     inkscape:document-units="px"
     inkscape:current-layer="g5515"
     showgrid="false"
     inkscape:window-width="1276"
     inkscape:window-height="974"
     inkscape:window-x="0"
     inkscape:window-y="14"
     inkscape:snap-nodes="false"
     inkscape:snap-bbox="true">
    <inkscape:grid
       type="xygrid"
       id="grid2383"
       visible="true"
       enabled="true" />
  </sodipodi:namedview>
  <metadata
     id="metadata7">
    <rdf:RDF>
      <cc:Work
         rdf:about="">
        <dc:format>image/svg+xml</dc:format>
        <dc:type
           rdf:resource="http://purl.org/dc/dcmitype/StillImage" />
        <dc:creator>
          <cc:Agent>
            <dc:title>Jakub Szypulka</dc:title>
          </cc:Agent>
        </dc:creator>
        <dc:publisher>
          <cc:Agent>
            <dc:title>Jakub Szypulka</dc:title>
          </cc:Agent>
        </dc:publisher>
        <dc:rights>
          <cc:Agent>
            <dc:title>Jakub Szypulka</dc:title>
          </cc:Agent>
        </dc:rights>
      </cc:Work>
    </rdf:RDF>
  </metadata>
  <g
     inkscape:label="Layer 1"
     inkscape:groupmode="layer"
     id="layer1">
    <g
       id="g5515"
       transform="matrix(0.7073171,0,0,0.7073171,2.4390163e-2,2.4390163e-2)">
      <path
         transform="matrix(0.883452,0,0,0.7416819,-5.2349231,-2.6079912)"
         d="M 40.6875,40.25 A 15.53125,3.25 0 1 1 9.625,40.25 A 15.53125,3.25 0 1 1 40.6875,40.25 z"
         sodipodi:ry="3.25"
         sodipodi:rx="15.53125"
         sodipodi:cy="40.25"
         sodipodi:cx="25.15625"
         id="path6309"
         style="opacity:0.3;fill:#000000;fill-opacity:1;fill-rule:evenodd;stroke:none;stroke-width:1px;stroke-linecap:butt;stroke-linejoin:miter;marker:none;marker-start:none;marker-mid:none;marker-end:none;stroke-miterlimit:4;stroke-dasharray:none;stroke-dashoffset:0;stroke-opacity:1;visibility:visible;display:inline;overflow:visible;filter:url(#filter6311);enable-background:accumulate"
         sodipodi:type="arc" />
      <path
         sodipodi:nodetypes="csscccsccsscsssc"
         id="path5488"
         d="M 14.060562,0.72957741 C 6.6712157,0.72957741 0.67241381,6.7265369 0.67241388,14.113613 C 0.67241388,21.500688 6.6712157,27.497648 14.060562,27.497648 C 16.679055,27.497648 17.742964,26.865614 19.855596,26.024361 C 20.645777,25.526301 28.873326,29.001865 28.947587,28.947648 C 29.005628,28.847147 25.368014,21.213342 25.888049,20.443916 C 26.774898,18.549921 27.448709,16.883274 27.448709,14.113613 C 27.448709,6.7265369 21.449907,0.72957741 14.060562,0.72957741 z M 14.060562,5.8121223 C 18.645304,5.8121223 22.364603,9.5302781 22.364603,14.113613 C 22.364603,15.563281 21.992523,16.926396 21.338667,18.112685 C 20.96433,18.791843 22.472923,22.36033 22.394245,22.438984 C 22.344324,22.513092 18.846332,20.938347 18.202633,21.309565 C 16.983329,22.012735 15.568772,22.415102 14.060562,22.415102 C 9.4758189,22.415102 5.7565203,18.696947 5.7565203,14.113613 C 5.7565203,9.5302781 9.4758189,5.8121223 14.060562,5.8121223 z"
         style="fill:#8ae234;fill-opacity:1;fill-rule:evenodd;stroke:#4e9a06;stroke-width:1.41379297000000000px;stroke-linecap:butt;stroke-linejoin:miter;marker:none;marker-start:none;marker-mid:none;marker-end:none;stroke-miterlimit:4;stroke-dasharray:none;stroke-dashoffset:0;stroke-opacity:1;visibility:visible;display:inline;overflow:visible;enable-background:accumulate" />
      <path
         style="opacity:0.67000002000000003;fill:none;fill-opacity:1;fill-rule:evenodd;stroke:url(#linearGradient5522);stroke-width:1.41379297000000000px;stroke-linecap:butt;stroke-linejoin:miter;marker:none;marker-start:none;marker-mid:none;marker-end:none;stroke-miterlimit:4;stroke-dashoffset:0;stroke-opacity:1;visibility:visible;display:inline;overflow:visible;enable-background:accumulate"
         d="M 14.194496,22.539661 C 15.661718,22.565643 17.219077,21.868448 18.521068,21.496671 C 18.832425,21.571988 19.244337,21.69055 19.651629,21.844334 C 20.417861,22.496958 22.301321,23.32366 23.170079,23.362689 C 23.709491,22.243942 22.316682,20.413759 22.043203,19.294802 C 21.903288,18.838178 21.781386,18.377954 21.717079,18.043214 C 21.687502,17.889252 21.676459,17.762185 21.673595,17.672373 C 21.673913,17.667049 21.673068,17.642524 21.673595,17.626018 C 22.956319,-12.108831 -8.7820903,18.574894 14.194496,22.539661 z"
         id="path5531"
         sodipodi:nodetypes="ccccccccc" />
      <path
         sodipodi:type="inkscape:offset"
         inkscape:radius="0.39207131"
         inkscape:original="M 20.78125 4.875 C 11.987043 4.875 4.8749999 11.987043 4.875 20.78125 C 4.875 29.575457 11.987043 36.6875 20.78125 36.6875 C 23.852333 36.6875 24.934166 36.030326 27.5625 34.96875 C 27.587287 34.958738 27.619844 34.926844 27.75 34.875 C 27.81861 34.844506 27.894346 34.833687 27.96875 34.84375 C 27.978504 34.840492 27.990252 34.846881 28 34.84375 C 28.175074 34.787517 28.356192 34.72192 28.53125 34.71875 C 28.79487 34.713976 29.018428 34.744772 29.25 34.78125 C 29.735111 34.857666 30.303359 35.013364 30.90625 35.1875 C 32.104987 35.533738 33.519561 36.007028 34.9375 36.53125 C 35.878143 36.879012 36.700512 37.190087 37.5 37.5 C 37.189741 36.807557 36.872219 36.135709 36.53125 35.3125 C 35.985783 33.99557 35.459352 32.63317 35.09375 31.5 C 34.908369 30.925421 34.767961 30.398103 34.6875 29.9375 C 34.626981 29.591059 34.493967 29.057695 34.84375 28.40625 C 34.849302 28.3947 34.838897 28.384643 34.84375 28.375 C 34.860735 28.341248 34.866683 28.299101 34.875 28.28125 C 35.964983 25.941736 36.6875 24.079251 36.6875 20.78125 C 36.6875 11.987043 29.575457 4.875 20.78125 4.875 z "
         style="opacity:0.67000002;fill:none;fill-opacity:1;fill-rule:evenodd;stroke:url(#linearGradient5530);stroke-width:1.96607399px;stroke-linecap:butt;stroke-linejoin:miter;marker:none;marker-start:none;marker-mid:none;marker-end:none;stroke-miterlimit:4;stroke-dasharray:none;stroke-dashoffset:0;stroke-opacity:1;visibility:visible;display:inline;overflow:visible;enable-background:accumulate"
         id="path5524"
         d="M 20.78125,4.46875 C 11.775659,4.46875 4.4687499,11.775659 4.46875,20.78125 C 4.46875,29.786841 11.775659,37.09375 20.78125,37.09375 C 23.908265,37.09375 25.107875,36.398274 27.71875,35.34375 C 27.809924,35.306923 27.799252,35.288814 27.8125,35.28125 C 27.825748,35.273686 27.856409,35.269853 27.90625,35.25 C 27.906665,35.239587 27.906665,35.229163 27.90625,35.21875 C 27.916663,35.219165 27.927087,35.219165 27.9375,35.21875 C 27.968638,35.222499 28.000112,35.222499 28.03125,35.21875 C 28.063651,35.219962 28.063769,35.238417 28.125,35.21875 C 28.309638,35.159445 28.449193,35.126486 28.53125,35.125 C 28.760338,35.120851 28.960736,35.120529 29.1875,35.15625 C 29.638237,35.227251 30.212851,35.3893 30.8125,35.5625 C 31.998725,35.905124 33.402119,36.384822 34.8125,36.90625 C 35.751529,37.253415 36.546305,37.565879 37.34375,37.875 C 37.493326,37.934649 37.664165,37.896784 37.77453,37.779521 C 37.884896,37.662258 37.912347,37.48944 37.84375,37.34375 C 37.531371,36.646576 37.243149,35.969632 36.90625,35.15625 C 36.363238,33.845247 35.828779,32.490898 35.46875,31.375 C 35.28713,30.812077 35.138385,30.309406 35.0625,29.875 C 34.996961,29.499825 34.899507,29.130116 35.1875,28.59375 C 35.187915,28.583337 35.187915,28.572913 35.1875,28.5625 C 35.217189,28.503504 35.243312,28.461935 35.25,28.4375 C 35.256688,28.413065 35.249367,28.371786 35.21875,28.4375 C 36.314363,26.085902 37.09375,24.136514 37.09375,20.78125 C 37.09375,11.775659 29.786841,4.46875 20.78125,4.46875 z"
         transform="matrix(0.719329,0,0,0.7188601,-1.1282945,-1.126199)" />
    </g>
  </g>
</svg>
