<?xml version="1.0" encoding="UTF-8" standalone="no"?>
<!-- Created with Inkscape (http://www.inkscape.org/) -->
<svg
   xmlns:dc="http://purl.org/dc/elements/1.1/"
   xmlns:cc="http://creativecommons.org/ns#"
   xmlns:rdf="http://www.w3.org/1999/02/22-rdf-syntax-ns#"
   xmlns:svg="http://www.w3.org/2000/svg"
   xmlns="http://www.w3.org/2000/svg"
   xmlns:xlink="http://www.w3.org/1999/xlink"
   xmlns:sodipodi="http://sodipodi.sourceforge.net/DTD/sodipodi-0.dtd"
   xmlns:inkscape="http://www.inkscape.org/namespaces/inkscape"
   width="16"
   height="16"
   id="svg2"
   sodipodi:version="0.32"
   inkscape:version="0.46"
   version="1.0"
   sodipodi:docname="twitter16.svg"
   inkscape:output_extension="org.inkscape.output.svg.inkscape"
   inkscape:export-filename="C:\Users\Cube\Documents\My Dropbox\Inkscape-Files\twitter\twitter16.png"
   inkscape:export-xdpi="90"
   inkscape:export-ydpi="90">
  <defs
     id="defs4">
    <linearGradient
       id="linearGradient6340">
      <stop
         id="stop6342"
         offset="0"
         style="stop-color:#ffffff;stop-opacity:1;" />
      <stop
         id="stop6344"
         offset="1"
         style="stop-color:#ffffff;stop-opacity:0;" />
    </linearGradient>
    <linearGradient
       id="linearGradient6316">
      <stop
         style="stop-color:#60daf1;stop-opacity:1;"
         offset="0"
         id="stop6318" />
      <stop
         style="stop-color:#d4f5fc;stop-opacity:1;"
         offset="1"
         id="stop6320" />
    </linearGradient>
    <linearGradient
       id="linearGradient6310">
      <stop
         id="stop6312"
         offset="0"
         style="stop-color:#85e2f4;stop-opacity:1;" />
      <stop
         id="stop6314"
         offset="1"
         style="stop-color:#85e2f4;stop-opacity:0;" />
    </linearGradient>
    <inkscape:perspective
       sodipodi:type="inkscape:persp3d"
       inkscape:vp_x="0 : 526.18109 : 1"
       inkscape:vp_y="0 : 1000 : 0"
       inkscape:vp_z="744.09448 : 526.18109 : 1"
       inkscape:persp3d-origin="372.04724 : 350.78739 : 1"
       id="perspective10" />
    <inkscape:perspective
       id="perspective5482"
       inkscape:persp3d-origin="372.04724 : 350.78739 : 1"
       inkscape:vp_z="744.09448 : 526.18109 : 1"
       inkscape:vp_y="0 : 1000 : 0"
       inkscape:vp_x="0 : 526.18109 : 1"
       sodipodi:type="inkscape:persp3d" />
    <linearGradient
       inkscape:collect="always"
       xlink:href="#linearGradient6340"
       id="linearGradient6338"
       x1="9"
       y1="14.2743"
       x2="38.111732"
       y2="14.2743"
       gradientUnits="userSpaceOnUse" />
    <linearGradient
       inkscape:collect="always"
       xlink:href="#linearGradient6316"
       id="linearGradient5497"
       gradientUnits="userSpaceOnUse"
       x1="24.501379"
       y1="44.006981"
       x2="24.167694"
       y2="3.029938"
       gradientTransform="matrix(1.0238981,0,0,0.9879026,-0.2270627,4.2703061e-2)" />
    <linearGradient
       inkscape:collect="always"
       xlink:href="#linearGradient6316"
       id="linearGradient5503"
       gradientUnits="userSpaceOnUse"
       gradientTransform="matrix(0.8766465,0,0,0.8225762,-0.9955476,-1.5078288)"
       x1="24.501379"
       y1="44.006981"
       x2="24.167694"
       y2="3.029938" />
  </defs>
  <sodipodi:namedview
     id="base"
     pagecolor="#ffffff"
     bordercolor="#666666"
     borderopacity="1.0"
     gridtolerance="10000"
     guidetolerance="10"
     objecttolerance="10"
     inkscape:pageopacity="0.0"
     inkscape:pageshadow="2"
     inkscape:zoom="1"
     inkscape:cx="5.0431985"
     inkscape:cy="7.2737629"
     inkscape:document-units="px"
     inkscape:current-layer="g6277"
     showgrid="false"
     inkscape:window-width="1280"
     inkscape:window-height="974"
     inkscape:window-x="-8"
     inkscape:window-y="-8"
     inkscape:snap-nodes="false"
     inkscape:snap-bbox="true">
    <inkscape:grid
       type="xygrid"
       id="grid2383"
       visible="true"
       enabled="true" />
  </sodipodi:namedview>
  <metadata
     id="metadata7">
    <rdf:RDF>
      <cc:Work
         rdf:about="">
        <dc:format>image/svg+xml</dc:format>
        <dc:type
           rdf:resource="http://purl.org/dc/dcmitype/StillImage" />
        <dc:creator>
          <cc:Agent>
            <dc:title>Jakub Szypulka</dc:title>
          </cc:Agent>
        </dc:creator>
        <dc:publisher>
          <cc:Agent>
            <dc:title>Jakub Szypulka</dc:title>
          </cc:Agent>
        </dc:publisher>
        <dc:rights>
          <cc:Agent>
            <dc:title>Jakub Szypulka</dc:title>
          </cc:Agent>
        </dc:rights>
      </cc:Work>
    </rdf:RDF>
  </metadata>
  <g
     inkscape:label="Layer 1"
     inkscape:groupmode="layer"
     id="layer1">
    <g
       id="g5492"
       transform="matrix(0.6836581,0,0,0.6836581,4.3602615e-3,-0.9132706)">
      <g
         id="g6277"
         transform="matrix(0.6674122,0,0,0.6836718,-1.2442022,1.1100113)">
        <path
           style="fill:url(#linearGradient5503);fill-opacity:1;fill-rule:evenodd;stroke:#0083a0;stroke-width:2.16541052px;stroke-linecap:butt;stroke-linejoin:miter;marker:none;marker-start:none;marker-mid:none;marker-end:none;stroke-miterlimit:4;stroke-dasharray:none;stroke-dashoffset:0;stroke-opacity:1;visibility:visible;display:inline;overflow:visible;enable-background:accumulate"
           d="M 18.324223,7.8685336 C 23.230041,7.8685336 25.955564,7.8383668 28.260799,7.8383668 C 30.438473,7.8383668 31.474683,9.7397408 31.474683,12.20973 C 31.474683,14.666902 30.576782,16.397673 28.245733,16.397673 C 25.962002,16.397673 23.265237,16.421547 18.301933,16.421547 C 18.301933,22.498711 18.239334,24.968026 20.954861,24.968026 C 23.944884,24.968026 24.597651,24.95745 27.963241,24.95745 C 31.32883,24.95745 33.633272,25.64492 33.633272,29.211732 C 33.633272,32.778407 32.606915,33.490167 27.931123,33.490167 C 25.689882,33.490167 23.334229,33.492677 19.167324,33.492677 C 8.1177936,33.492677 7.3337333,29.322157 7.3337333,15.869093 L 7.3337333,6.0752952 C 7.3337333,-0.13925099 18.324223,0.35685639 18.324223,5.1430151 L 18.324223,7.8685336 z"
           id="path5488"
           sodipodi:nodetypes="cszscszzssczcc" />
        <path
           sodipodi:type="inkscape:offset"
           inkscape:radius="-2.0970356"
           inkscape:original="M 12.84375 1.46875 C 10.096128 1.5232716 7.3437501 2.955227 7.34375 6.0625 L 7.34375 15.875 C 7.34375 29.328064 8.1067195 33.500001 19.15625 33.5 C 23.323155 33.5 25.696258 33.500001 27.9375 33.5 C 32.613292 33.5 33.625002 32.785424 33.625 29.21875 C 33.625 25.651938 31.334338 24.968749 27.96875 24.96875 C 24.60316 24.96875 23.958773 24.968751 20.96875 24.96875 C 18.253223 24.96875 18.3125 22.483414 18.3125 16.40625 C 23.275804 16.40625 25.966269 16.40625 28.25 16.40625 C 30.581049 16.40625 31.468749 14.675922 31.46875 12.21875 C 31.46875 9.7487608 30.427674 7.8437498 28.25 7.84375 C 25.944765 7.84375 23.218318 7.875 18.3125 7.875 L 18.3125 5.15625 C 18.3125 2.7631706 15.591372 1.4142284 12.84375 1.46875 z "
           style="fill:none;fill-opacity:1;fill-rule:evenodd;stroke:#ffffff;stroke-width:2.16541052000000000px;stroke-linecap:butt;stroke-linejoin:miter;marker:none;marker-start:none;marker-mid:none;marker-end:none;stroke-miterlimit:4;stroke-dasharray:none;stroke-dashoffset:0;stroke-opacity:1;visibility:visible;display:inline;overflow:visible;enable-background:accumulate;opacity:0.67"
           id="path5509"
           d="M 12.875,3.5625 C 11.851386,3.5828118 10.892587,3.888933 10.3125,4.3125 C 9.7324128,4.736067 9.4375,5.1280382 9.4375,6.0625 L 9.4375,15.875 C 9.4375,22.561889 9.8179292,26.746959 10.9375,28.6875 C 11.497285,29.657771 12.121004,30.19232 13.375,30.65625 C 14.628996,31.12018 16.525829,31.40625 19.15625,31.40625 C 23.323155,31.40625 25.696259,31.406251 27.9375,31.40625 C 30.16857,31.40625 31.20214,31.090245 31.28125,31.03125 C 31.320805,31.001752 31.301548,31.061219 31.375,30.8125 C 31.448452,30.563781 31.53125,30.011279 31.53125,29.21875 C 31.53125,27.88426 31.320639,27.769091 30.9375,27.53125 C 30.554361,27.293409 29.50965,27.0625 27.96875,27.0625 C 24.60316,27.0625 23.958774,27.062501 20.96875,27.0625 C 19.969989,27.0625 18.861487,26.786048 18.03125,26.0625 C 17.201013,25.338952 16.812918,24.369868 16.59375,23.4375 C 16.155414,21.572764 16.21875,19.438014 16.21875,16.40625 C 16.220674,15.250702 17.156952,14.314424 18.3125,14.3125 C 23.275804,14.3125 25.966269,14.3125 28.25,14.3125 C 28.896651,14.3125 28.853605,14.242221 29,14.03125 C 29.146395,13.820279 29.375,13.194805 29.375,12.21875 C 29.375,11.278382 29.140203,10.580084 28.9375,10.28125 C 28.734797,9.9824163 28.727347,9.9375 28.25,9.9375 C 25.963717,9.9375 23.227223,9.96875 18.3125,9.96875 C 17.156952,9.9668257 16.220674,9.0305482 16.21875,7.875 L 16.21875,5.15625 C 16.21875,4.7545443 16.087224,4.5486188 15.5,4.1875 C 14.912776,3.8263812 13.892106,3.5423174 12.875,3.5625 z" />
      </g>
    </g>
  </g>
</svg>
